<svg xmlns="http://www.w3.org/2000/svg" version="1.1" xmlns:xlink="http://www.w3.org/1999/xlink" xmlns:svgjs="http://svgjs.dev/svgjs" width="1000" height="1000" viewBox="0 0 1000 1000"><rect width="1000" height="1000" fill="#000000"></rect><g transform="matrix(0.7,0,0,0.7,150.05793103448275,301.71068825910936)"><svg viewBox="0 0 435 247" data-background-color="#28353b" preserveAspectRatio="xMidYMid meet" height="567" width="1000" xmlns="http://www.w3.org/2000/svg" xmlns:xlink="http://www.w3.org/1999/xlink"><defs></defs><g id="tight-bounds" transform="matrix(1,0,0,1,19.74000000000001,-0.09999999999999432)"><svg viewBox="0 0 395.52 247.2" height="247.2" width="395.52"><g><svg></svg></g><g><svg viewBox="0 0 395.52 247.2" height="247.2" width="395.52"><g transform="matrix(3.4392792965556325, 0, 0, 3.4392792965556325, 67.78274433451105, 1)"><svg xmlns="http://www.w3.org/2000/svg" xmlns:xlink="http://www.w3.org/1999/xlink" version="1.1" x="0" y="0" viewBox="12.208002090454102 14.35300064086914 75.5840072631836 71.29400634765625" enable-background="new 0 0 100 100" xml:space="preserve" height="71.29400634765625" width="75.5840072631836" class="icon-none" data-fill-palette-color="accent" id="none"><path fill="#ffffff" d="M81.653 48.936c-3.044 0-5.571 2.229-6.051 5.139h-2.02c-0.909 0-1.762-0.401-2.341-1.103l-3.271-3.959c-1.028-1.243-2.543-1.957-4.156-1.957h-2.987v-7.824c0-2.716-2.21-4.926-4.926-4.926h-4.839v-1.142c0-0.582 0.227-1.131 0.638-1.544l3.773-3.786c0.407-0.408 0.972-0.643 1.549-0.643h5.644c0.48 2.91 3.006 5.139 6.051 5.139 3.385 0 6.139-2.754 6.139-6.139 0-3.386-2.754-6.14-6.139-6.14-3.044 0-5.571 2.229-6.051 5.14h-5.644c-1.104 0-2.186 0.448-2.965 1.23l-3.774 3.787c-0.787 0.791-1.221 1.841-1.221 2.955v1.142h-4.163v-3.443c0-1.529-0.595-2.968-1.674-4.051l-5.611-5.63c-1.068-1.072-2.55-1.688-4.064-1.688h-9.152c-0.48-2.911-3.006-5.14-6.051-5.14-3.385 0-6.139 2.754-6.139 6.14 0 3.385 2.754 6.139 6.139 6.139 3.044 0 5.571-2.229 6.051-5.139h9.152c0.986 0 1.952 0.4 2.648 1.1l5.611 5.63c0.703 0.705 1.09 1.643 1.09 2.639v3.443h-5.296c-2.716 0-4.925 2.21-4.925 4.926v3.166h-2.955c-1.367 0-2.677 0.507-3.688 1.426l-5.41 4.92c-1.14 1.037-1.794 2.515-1.794 4.056v11.517c-3.072 0.334-5.472 2.942-5.472 6.102 0 3.385 2.754 6.139 6.14 6.139 3.385 0 6.139-2.754 6.139-6.139 0-2.928-2.061-5.379-4.807-5.99V52.799c0-0.979 0.415-1.917 1.14-2.575l5.41-4.921c0.642-0.584 1.474-0.905 2.342-0.905h2.955v13.132c0 2.716 2.209 4.925 4.925 4.925h6.753v11.002c-2.911 0.48-5.14 3.006-5.14 6.05 0 3.386 2.754 6.14 6.14 6.14s6.14-2.754 6.14-6.14c0-3.044-2.229-5.57-5.14-6.05V62.454h9.545c2.704 0 4.902-2.19 4.922-4.889 0.086 0.024 0.17 0.053 0.263 0.053h1.427c0.706 0 1.383 0.301 1.863 0.832l6.198 6.719c-0.958 1.083-1.545 2.502-1.545 4.058 0 3.386 2.754 6.14 6.14 6.14 3.385 0 6.139-2.754 6.139-6.14 0-3.385-2.754-6.139-6.139-6.139-1.107 0-2.144 0.299-3.042 0.814l-6.273-6.801c-0.854-0.942-2.07-1.483-3.341-1.483h-1.427c-0.092 0-0.175 0.029-0.26 0.052v-6.615h2.987c1.015 0 1.968 0.449 2.615 1.231l3.271 3.958c0.96 1.162 2.375 1.829 3.883 1.829h2.02c0.48 2.911 3.006 5.14 6.051 5.14 3.385 0 6.139-2.754 6.139-6.14C87.792 51.689 85.038 48.936 81.653 48.936zM68.717 22.052c2.282 0 4.139 1.857 4.139 4.14s-1.856 4.139-4.139 4.139c-2.252 0-4.083-1.81-4.131-4.052 0.003-0.03 0.018-0.056 0.018-0.087s-0.015-0.057-0.018-0.087C64.634 23.863 66.464 22.052 68.717 22.052zM18.347 24.633c-2.282 0-4.139-1.856-4.139-4.139s1.856-4.14 4.139-4.14 4.14 1.857 4.14 4.14S20.629 24.633 18.347 24.633zM23.639 70.417c0 2.282-1.856 4.139-4.139 4.139s-4.14-1.856-4.14-4.139 1.857-4.14 4.14-4.14S23.639 68.135 23.639 70.417zM49.496 79.506c0 2.282-1.857 4.14-4.14 4.14s-4.14-1.857-4.14-4.14 1.857-4.139 4.14-4.139S49.496 77.224 49.496 79.506zM79.309 69.228c0 2.282-1.856 4.14-4.139 4.14s-4.14-1.857-4.14-4.14c0-1.187 0.51-2.252 1.313-3.007 0.133-0.043 0.26-0.107 0.369-0.208 0.072-0.066 0.116-0.147 0.164-0.227 0.657-0.439 1.445-0.697 2.293-0.697C77.452 65.089 79.309 66.945 79.309 69.228zM58.827 57.529c0 1.612-1.313 2.925-2.926 2.925H37.604c-1.612 0-2.925-1.313-2.925-2.925V39.231c0-1.613 1.313-2.926 2.925-2.926h18.298c1.613 0 2.926 1.313 2.926 2.926V57.529zM81.653 59.214c-2.282 0-4.14-1.857-4.14-4.14s1.857-4.139 4.14-4.139 4.139 1.856 4.139 4.139S83.936 59.214 81.653 59.214z" data-fill-palette-color="accent"></path><rect x="38.961" y="40.639" fill="#ffffff" width="3" height="3" data-fill-palette-color="accent"></rect><rect x="45.215" y="40.639" fill="#ffffff" width="3" height="3" data-fill-palette-color="accent"></rect><rect x="45.215" y="46.88" fill="#ffffff" width="3" height="3" data-fill-palette-color="accent"></rect><rect x="51.544" y="46.88" fill="#ffffff" width="3" height="3" data-fill-palette-color="accent"></rect><rect x="38.961" y="53.047" fill="#ffffff" width="3" height="3" data-fill-palette-color="accent"></rect><rect x="51.544" y="53.047" fill="#ffffff" width="3" height="3" data-fill-palette-color="accent"></rect></svg></g><rect width="435.072" height="96.71369769846302" fill="#28353b" y="75.24315115076848" x="-19.77600000000001" data-fill-palette-color="quaternary"></rect><g transform="matrix(1,0,0,1,0,86.47526491508704)"><svg viewBox="0 0 395.52 74.24947016982591" height="74.24947016982591" width="395.52"><g><svg viewBox="0 0 395.52 74.24947016982591" height="74.24947016982591" width="395.52"><g><svg viewBox="0 0 395.52 74.24947016982591" height="74.24947016982591" width="395.52"><g><svg viewBox="0 0 395.52 74.24947016982591" height="74.24947016982591" width="395.52"><g><svg viewBox="0 0 395.52 47.57838053982005" height="47.57838053982005" width="395.52"><g transform="matrix(1,0,0,1,0,0)"><svg width="395.52" viewBox="1.2000000476837158 -35.29999923706055 300.0799865722656 36.099998474121094" height="47.57838053982005" data-palette-color="#ffffff"><path d="M14.45-33.95L14.45-0.8 9.05-0.4 9.05 0 23.7 0 23.7-0.4 18.3-0.8 18.3-33.95 25.6-33.95Q26.8-33.95 27.33-33.58 27.85-33.2 28.3-32.05L28.3-32.05 31.4-24.35 31.8-24.45 30.7-35.3 30.4-35.3Q29.3-34.8 28.53-34.65 27.75-34.5 26.55-34.5L26.55-34.5 7.3-34.5Q6.1-34.5 5.33-34.65 4.55-34.8 3.45-35.3L3.45-35.3 3.15-35.3 1.2-24.45 1.6-24.35 5.05-32.05Q5.55-33.2 6.1-33.58 6.65-33.95 7.85-33.95L7.85-33.95 14.45-33.95ZM67.8-34.1L63.7-33.7 63.7-0.8 67.8-0.4 67.8 0 55.5 0 55.5-0.4 59.85-0.8 59.85-17.75 43.2-17.75 43.2-0.8 47.55-0.4 47.55 0 35.25 0 35.25-0.4 39.35-0.8 39.35-33.7 35.25-34.1 35.25-34.5 47.55-34.5 47.55-34.1 43.2-33.7 43.2-18.55 59.85-18.55 59.85-33.7 55.5-34.1 55.5-34.5 67.8-34.5 67.8-34.1ZM97-10.55L97.55-10.5 96.3 0 71.8 0 71.8-0.4 75.9-0.8 75.9-33.7 71.8-34.1 71.8-34.5 96.35-34.5 97.05-25.1 96.55-25.05 93.75-32.05Q93.3-33.2 92.77-33.55 92.25-33.9 91.05-33.9L91.05-33.9 79.75-33.9 79.75-18.55 87.15-18.55Q88.35-18.55 88.85-18.95 89.35-19.35 89.55-20.5L89.55-20.5 90.4-24.55 91-24.55 91-11.75 90.4-11.75 89.55-15.8Q89.35-16.95 88.85-17.35 88.35-17.75 87.15-17.75L87.15-17.75 79.75-17.75 79.75-0.6 90.95-0.6Q92.15-0.6 92.7-0.98 93.25-1.35 93.7-2.45L93.7-2.45 97-10.55ZM154.29-34.1L149.94-33.7 149.94-0.8 154.29-0.4 154.29 0 141.99 0 141.99-0.4 146.09-0.8 146.09-31.25 145.89-31.25 133.84 0.8 133.34 0.8 119.89-31.3 119.69-31.3 119.69-3.05Q119.69-1.85 119.99-1.38 120.29-0.9 121.19-0.8L121.19-0.8 124.74-0.4 124.74 0 113.79 0 113.79-0.4 117.39-0.8Q118.29-0.9 118.59-1.38 118.89-1.85 118.89-3.05L118.89-3.05 118.89-33.05Q118.54-33.65 118.02-33.88 117.49-34.1 116.49-34.1L116.49-34.1 114.19-34.1 114.19-34.5 122.74-34.5 135.04-5.15 135.24-5.15 146.24-34.5 154.29-34.5 154.29-34.1ZM185.54-0.9L189.69-0.4 189.69 0 177.44 0 177.44-0.4 181.54-0.9 176.84-13.7 164.74-13.7 160.59-2.65Q160.39-2.1 160.39-1.75L160.39-1.75Q160.39-1.2 160.71-0.98 161.04-0.75 161.89-0.65L161.89-0.65 164.94-0.4 164.94 0 154.29 0 154.29-0.4 157.09-0.65Q158.34-0.75 158.86-1.15 159.39-1.55 159.79-2.65L159.79-2.65 172.04-35.3 172.94-35.3 185.54-0.9ZM165.04-14.5L176.54-14.5 170.94-29.75 170.74-29.75 165.04-14.5ZM200.04-33.95L200.04-0.8 194.64-0.4 194.64 0 209.29 0 209.29-0.4 203.89-0.8 203.89-33.95 211.19-33.95Q212.39-33.95 212.91-33.58 213.44-33.2 213.89-32.05L213.89-32.05 216.99-24.35 217.39-24.45 216.29-35.3 215.99-35.3Q214.89-34.8 214.11-34.65 213.34-34.5 212.14-34.5L212.14-34.5 192.89-34.5Q191.69-34.5 190.91-34.65 190.14-34.8 189.04-35.3L189.04-35.3 188.74-35.3 186.79-24.45 187.19-24.35 190.64-32.05Q191.14-33.2 191.69-33.58 192.24-33.95 193.44-33.95L193.44-33.95 200.04-33.95ZM250.48-0.4L251.18-0.4 251.18 0 246.03 0Q244.83 0 244.23-0.35 243.63-0.7 242.98-1.7L242.98-1.7 235.33-14.05Q234.63-15.2 234.16-15.48 233.68-15.75 232.48-15.75L232.48-15.75 228.78-15.75 228.78-0.8 233.13-0.4 233.13 0 220.83 0 220.83-0.4 224.93-0.8 224.93-33.7 220.83-34.1 220.83-34.5 233.48-34.5Q239.38-34.5 242.48-32.13 245.58-29.75 245.58-25.25L245.58-25.25Q245.58-21.75 243.68-19.5 241.78-17.25 238.18-16.4L238.18-16.4 238.23-16.4 247.38-2.1Q248.03-1.1 248.66-0.75 249.28-0.4 250.48-0.4L250.48-0.4ZM233.33-33.9L228.78-33.9 228.78-16.5 233.33-16.5Q237.33-16.5 239.26-18.63 241.18-20.75 241.18-25.15L241.18-25.15Q241.18-29.6 239.23-31.75 237.28-33.9 233.33-33.9L233.33-33.9ZM251.53-34.1L251.53-34.5 263.58-34.5 263.58-34.1 259.48-33.7 259.48-0.8 263.58-0.4 263.58 0 251.53 0 251.53-0.4 255.63-0.8 255.63-33.7 251.53-34.1ZM297.18-0.8L301.28-0.4 301.28 0 288.53 0 288.53-0.4 292.88-0.8 282.33-16.1 272.18-2.4Q271.58-1.6 271.58-1.25L271.58-1.25Q271.58-1 271.9-0.88 272.23-0.75 272.98-0.65L272.98-0.65 275.83-0.4 275.83 0 265.63 0 265.63-0.4 268.18-0.6Q269.38-0.7 270.03-1.07 270.68-1.45 271.38-2.4L271.38-2.4 281.93-16.7 270.23-33.7 266.13-34.1 266.13-34.5 278.88-34.5 278.88-34.1 274.53-33.7 284.58-19.1 294.23-32.1Q294.83-32.95 294.83-33.25L294.83-33.25Q294.83-33.5 294.5-33.63 294.18-33.75 293.43-33.85L293.43-33.85 290.58-34.1 290.58-34.5 300.78-34.5 300.78-34.1 298.23-33.9Q297.03-33.8 296.38-33.43 295.73-33.05 295.03-32.1L295.03-32.1 284.98-18.5 297.18-0.8Z" opacity="1" transform="matrix(1,0,0,1,0,0)" fill="#ffffff" class="undefined-text-0" data-fill-palette-color="primary" id="text-0"></path></svg></g></svg></g><g transform="matrix(1,0,0,1,39.55199999999999,58.810494304138615)"><svg viewBox="0 0 316.416 15.438975865687302" height="15.438975865687302" width="316.416"><g transform="matrix(1,0,0,1,0,0)"><svg width="316.416" viewBox="1.25 -35.75 952.9099731445312 46.5" height="15.438975865687302" data-palette-color="#ffffff"><path d="M8.75 0L8.75-0.75 11.75-1.5 11.75-33.75 6-33.75Q6-30.7 4.35-27.9L4.35-27.9Q3.65-26.75 2.75-26L2.75-26 1.25-26 1.25-35 30.5-35 30.5-26 29-26Q28.05-26.75 27.35-27.9L27.35-27.9Q25.75-30.6 25.75-33.75L25.75-33.75 20-33.75 20-1.5 23-0.75 23 0 8.75 0ZM33.75 0L33.75-0.75 36.75-1.5 36.75-33.5 33.75-34.25 33.75-35 40.25-35Q44.75-35 44.75-30.5L44.75-30.5 44.75-22.5Q45.5-23.5 46.3-24.1L46.3-24.1Q48.45-25.75 51.25-25.75L51.25-25.75Q54.05-25.75 56.27-24.58 58.5-23.4 59.75-21.5 61-19.6 61-17.5L61-17.5 61-1.5 64-0.75 64 0 57.5 0Q53 0 53-4.5L53-4.5 53-17.5Q53-20.65 51.87-22.33 50.75-24 49.25-24L49.25-24Q47.35-24 45.85-22L45.85-22Q45.2-21.15 44.75-20L44.75-20 44.75-1.5 47.75-0.75 47.75 0 33.75 0ZM80.5 0.75Q74.09 0.75 70.55-2.78 67-6.3 67-12.5L67-12.5Q67-16.55 68.55-19.55 70.09-22.55 72.87-24.15 75.65-25.75 79.25-25.75L79.25-25.75Q82.84-25.75 85.57-24.4 88.3-23.05 89.77-20.78 91.25-18.5 91.25-15.75L91.25-15.75Q91.25-14.5 91-13.6L91-13.6 90.75-12.75Q88.59-12.3 86.09-12L86.09-12Q80.84-11.25 75.5-11.25L75.5-11.25Q75.5-5.45 77.09-2.98 78.7-0.5 81.5-0.5L81.5-0.5Q83.45-0.5 85.12-1.43 86.8-2.35 87.77-3.88 88.75-5.4 88.75-7L88.75-7 90-7Q90-5 88.8-3.2 87.59-1.4 85.45-0.33 83.3 0.75 80.5 0.75L80.5 0.75ZM75.5-12.5Q78.7-12.5 80.7-12.75L80.7-12.75Q81.55-12.8 82.5-13L82.5-13Q82.55-13.25 82.75-14.1L82.75-14.1Q83-15.35 83-16.75L83-16.75Q83-20.9 81.9-22.83 80.8-24.75 79.25-24.75L79.25-24.75Q75.5-24.75 75.5-12.5L75.5-12.5ZM137.24 0.75L113.99-26.5 113.99-2.25 117.99-0.75 117.99 0 108.49 0 108.49-0.75 112.49-2.25 112.49-33.25 108.99-34.25 108.99-35 114.24-35Q116.89-35 118.39-34.05 119.89-33.1 121.24-31.5L121.24-31.5 137.24-12.75 137.24-32.75 133.24-34.25 133.24-35 142.74-35 142.74-34.25 138.74-32.75 138.74 0.75 137.24 0.75ZM159.49 0.75Q153.09 0.75 149.54-2.78 145.99-6.3 145.99-12.5L145.99-12.5Q145.99-16.55 147.54-19.55 149.09-22.55 151.86-24.15 154.64-25.75 158.24-25.75L158.24-25.75Q161.84-25.75 164.56-24.4 167.29-23.05 168.76-20.78 170.24-18.5 170.24-15.75L170.24-15.75Q170.24-14.5 169.99-13.6L169.99-13.6 169.74-12.75Q167.59-12.3 165.09-12L165.09-12Q159.84-11.25 154.49-11.25L154.49-11.25Q154.49-5.45 156.09-2.98 157.69-0.5 160.49-0.5L160.49-0.5Q162.44-0.5 164.11-1.43 165.79-2.35 166.76-3.88 167.74-5.4 167.74-7L167.74-7 168.99-7Q168.99-5 167.79-3.2 166.59-1.4 164.44-0.33 162.29 0.75 159.49 0.75L159.49 0.75ZM154.49-12.5Q157.69-12.5 159.69-12.75L159.69-12.75Q160.54-12.8 161.49-13L161.49-13Q161.54-13.25 161.74-14.1L161.74-14.1Q161.99-15.35 161.99-16.75L161.99-16.75Q161.99-20.9 160.89-22.83 159.79-24.75 158.24-24.75L158.24-24.75Q154.49-24.75 154.49-12.5L154.49-12.5ZM184.99 0.5L173.49-23.5 170.99-24.25 170.99-25 176.74-25Q179.39-25 180.94-23.9 182.49-22.8 183.49-20.75L183.49-20.75 188.99-9.25 191.84-16.55 188.49-23.5 185.99-24.25 185.99-25 191.74-25Q194.39-25 195.94-23.9 197.49-22.8 198.49-20.75L198.49-20.75 203.99-9.25 209.24-22.75 205.49-24.25 205.49-25 214.74-25 214.74-24.25 210.74-22.75 201.49 0.5 199.99 0.5 192.59-14.9 186.49 0.5 184.99 0.5ZM228.23 0.75Q221.83 0.75 218.28-2.78 214.73-6.3 214.73-12.5L214.73-12.5Q214.73-16.55 216.28-19.55 217.83-22.55 220.61-24.15 223.38-25.75 226.98-25.75L226.98-25.75Q230.58-25.75 233.31-24.4 236.03-23.05 237.51-20.78 238.98-18.5 238.98-15.75L238.98-15.75Q238.98-14.5 238.73-13.6L238.73-13.6 238.48-12.75Q236.33-12.3 233.83-12L233.83-12Q228.58-11.25 223.23-11.25L223.23-11.25Q223.23-5.45 224.83-2.98 226.43-0.5 229.23-0.5L229.23-0.5Q231.18-0.5 232.86-1.43 234.53-2.35 235.51-3.88 236.48-5.4 236.48-7L236.48-7 237.73-7Q237.73-5 236.53-3.2 235.33-1.4 233.18-0.33 231.03 0.75 228.23 0.75L228.23 0.75ZM223.23-12.5Q226.43-12.5 228.43-12.75L228.43-12.75Q229.28-12.8 230.23-13L230.23-13Q230.28-13.25 230.48-14.1L230.48-14.1Q230.73-15.35 230.73-16.75L230.73-16.75Q230.73-20.9 229.63-22.83 228.53-24.75 226.98-24.75L226.98-24.75Q223.23-24.75 223.23-12.5L223.23-12.5ZM254.48 0.75Q251.38 0.75 248.93-0.6L248.93-0.6Q247.73-1.25 246.98-2L246.98-2Q246.18-0.9 245.23-0.3L245.23-0.3Q244.78 0 244.23 0.25L244.23 0.25 242.98 0.25 242.98-8.25 244.98-8.25Q245.63-6.15 246.88-4.35L246.88-4.35Q249.53-0.5 253.48-0.5L253.48-0.5Q255.58-0.5 256.66-1.53 257.73-2.55 257.73-4.5L257.73-4.5Q257.73-6.15 256.25-7.28 254.78-8.4 251.63-10.05L251.63-10.05Q248.93-11.4 247.26-12.48 245.58-13.55 244.41-15.18 243.23-16.8 243.23-19L243.23-19Q243.23-22 245.81-23.88 248.38-25.75 253.73-25.75L253.73-25.75Q256.38-25.75 258.63-24.35L258.63-24.35Q259.73-23.7 260.53-23L260.53-23Q261.18-23.9 262.28-24.7L262.28-24.7Q263.13-25.2 263.28-25.25L263.28-25.25 264.53-25.25 264.53-16.75 262.53-16.75Q261.78-18.9 260.68-20.6L260.68-20.6Q258.18-24.5 254.73-24.5L254.73-24.5Q253.38-24.5 252.43-23.5 251.48-22.5 251.48-21L251.48-21Q251.48-19.1 253.08-17.82 254.68-16.55 257.93-14.9L257.93-14.9Q260.58-13.55 262.16-12.53 263.73-11.5 264.86-10 265.98-8.5 265.98-6.5L265.98-6.5Q265.98 0.75 254.48 0.75L254.48 0.75ZM282.73 0.75Q279.43 0.75 277-0.45 274.58-1.65 273.28-3.75 271.98-5.85 271.98-8.5L271.98-8.5 271.98-23.75 268.48-23.75 268.48-25 271.98-25 271.98-27.5Q271.98-32 276.48-32L276.48-32 279.98-32 279.98-25 286.98-25 286.98-23.75 279.98-23.75 279.98-8.5Q279.98-3.9 280.93-2.2 281.88-0.5 283.73-0.5L283.73-0.5Q285.53-0.5 286.88-2.25 288.23-4 288.23-7L288.23-7 289.48-7Q289.48-3.3 287.63-1.28 285.78 0.75 282.73 0.75L282.73 0.75ZM320.97 0L306.72 0 306.72-0.75 309.72-1.5 309.72-33.5 306.72-34.25 306.72-35 320.97-35 320.97-34.25 317.97-33.5 317.97-1.5 320.97-0.75 320.97 0ZM325.47 0L325.47-0.75 328.47-1.5 328.47-23.5 325.47-24.25 325.47-25 329.97-25Q332.92-25 334.62-23.1L334.62-23.1Q335.27-22.35 335.72-21.25L335.72-21.25Q336.42-22.55 337.37-23.5L337.37-23.5Q339.62-25.75 342.97-25.75L342.97-25.75Q345.77-25.75 348-24.58 350.22-23.4 351.47-21.5 352.72-19.6 352.72-17.5L352.72-17.5 352.72-1.5 355.72-0.75 355.72 0 349.22 0Q344.72 0 344.72-4.5L344.72-4.5 344.72-17.5Q344.72-20.65 343.6-22.33 342.47-24 340.97-24L340.97-24Q339.07-24 337.57-22L337.57-22Q336.92-21.15 336.47-20L336.47-20 336.47-1.5 339.47-0.75 339.47 0 325.47 0ZM358.72 0L358.72-0.75 361.72-1.5 361.72-23.5 358.72-24.25 358.72-25 363.22-25Q366.17-25 367.87-23.1L367.87-23.1Q368.52-22.35 368.97-21.25L368.97-21.25Q369.67-22.55 370.62-23.5L370.62-23.5Q372.87-25.75 376.22-25.75L376.22-25.75Q379.02-25.75 381.24-24.58 383.47-23.4 384.72-21.5 385.97-19.6 385.97-17.5L385.97-17.5 385.97-1.5 388.97-0.75 388.97 0 382.47 0Q377.97 0 377.97-4.5L377.97-4.5 377.97-17.5Q377.97-20.65 376.84-22.33 375.72-24 374.22-24L374.22-24Q372.32-24 370.82-22L370.82-22Q370.17-21.15 369.72-20L369.72-20 369.72-1.5 372.72-0.75 372.72 0 358.72 0ZM405.22 0.75Q399.02 0.75 395.49-2.78 391.97-6.3 391.97-12.5L391.97-12.5Q391.97-18.7 395.49-22.23 399.02-25.75 405.22-25.75L405.22-25.75Q411.42-25.75 414.94-22.23 418.47-18.7 418.47-12.5L418.47-12.5Q418.47-6.3 414.94-2.78 411.42 0.75 405.22 0.75L405.22 0.75ZM405.22-0.25Q407.22-0.25 408.59-3.05 409.97-5.85 409.97-12.5L409.97-12.5Q409.97-19.15 408.59-21.95 407.22-24.75 405.22-24.75L405.22-24.75Q403.22-24.75 401.84-21.95 400.47-19.15 400.47-12.5L400.47-12.5Q400.47-5.85 401.84-3.05 403.22-0.25 405.22-0.25L405.22-0.25ZM434.46 0.5L421.96-23.5 419.46-24.25 419.46-25 425.71-25Q428.31-25 429.84-23.93 431.36-22.85 432.46-20.75L432.46-20.75 438.41-9.2 443.96-22.75 440.21-24.25 440.21-25 449.46-25 449.46-24.25 445.46-22.75 435.96 0.5 434.46 0.5ZM458.21 0.75Q453.76 0.75 451.36-1.15 448.96-3.05 448.96-6L448.96-6Q448.96-7.95 449.81-9.85L449.81-9.85Q450.16-10.75 450.71-11.5L450.71-11.5Q452.76-12 455.16-12.4L455.16-12.4Q460.56-13.3 464.71-13.5L464.71-13.5 464.71-15Q464.71-20.55 463.36-22.65 462.01-24.75 459.21-24.75L459.21-24.75Q458.16-24.75 457.41-24.5L457.41-24.5 456.71-24.25 456.71-16.75 456.06-16.6Q455.26-16.5 454.71-16.5L454.71-16.5Q453.01-16.5 451.99-17.53 450.96-18.55 450.96-20.25L450.96-20.25Q450.96-22.55 453.29-24.15 455.61-25.75 460.21-25.75L460.21-25.75Q464.11-25.75 466.94-24.38 469.76-23 471.24-20.58 472.71-18.15 472.71-15L472.71-15 472.71-1.5 475.71-0.75 475.71 0 471.21 0Q468.21 0 466.56-1.85L466.56-1.85Q465.86-2.6 465.46-3.75L465.46-3.75Q464.76-2.5 463.81-1.5L463.81-1.5Q461.56 0.75 458.21 0.75L458.21 0.75ZM460.21-1Q462.06-1 463.56-3L463.56-3Q464.11-3.75 464.71-5L464.71-5 464.71-12.25Q462.41-12.25 460.31-12L460.31-12Q458.76-11.8 458.21-11.75L458.21-11.75Q457.96-11.2 457.71-10.25L457.71-10.25Q457.21-8.35 457.21-6.5L457.21-6.5Q457.21-3.7 458.06-2.35 458.91-1 460.21-1L460.21-1ZM491.71 0.75Q488.41 0.75 485.98-0.45 483.56-1.65 482.26-3.75 480.96-5.85 480.96-8.5L480.96-8.5 480.96-23.75 477.46-23.75 477.46-25 480.96-25 480.96-27.5Q480.96-32 485.46-32L485.46-32 488.96-32 488.96-25 495.96-25 495.96-23.75 488.96-23.75 488.96-8.5Q488.96-3.9 489.91-2.2 490.86-0.5 492.71-0.5L492.71-0.5Q494.51-0.5 495.86-2.25 497.21-4 497.21-7L497.21-7 498.46-7Q498.46-3.3 496.61-1.28 494.76 0.75 491.71 0.75L491.71 0.75ZM501.21 0L501.21-0.75 504.21-1.5 504.21-23.5 501.21-24.25 501.21-25 507.71-25Q512.21-25 512.21-20.5L512.21-20.5 512.21-1.5 515.21-0.75 515.21 0 501.21 0ZM507.71-28Q506.21-28 505.21-29 504.21-30 504.21-31.5L504.21-31.5Q504.21-33 505.21-34 506.21-35 507.71-35L507.71-35Q509.21-35 510.21-34 511.21-33 511.21-31.5L511.21-31.5Q511.21-30 510.21-29 509.21-28 507.71-28L507.71-28ZM531.45 0.75Q525.25 0.75 521.73-2.78 518.2-6.3 518.2-12.5L518.2-12.5Q518.2-18.7 521.73-22.23 525.25-25.75 531.45-25.75L531.45-25.75Q537.65-25.75 541.18-22.23 544.7-18.7 544.7-12.5L544.7-12.5Q544.7-6.3 541.18-2.78 537.65 0.75 531.45 0.75L531.45 0.75ZM531.45-0.25Q533.45-0.25 534.83-3.05 536.2-5.85 536.2-12.5L536.2-12.5Q536.2-19.15 534.83-21.95 533.45-24.75 531.45-24.75L531.45-24.75Q529.45-24.75 528.08-21.95 526.7-19.15 526.7-12.5L526.7-12.5Q526.7-5.85 528.08-3.05 529.45-0.25 531.45-0.25L531.45-0.25ZM548.7 0L548.7-0.75 551.7-1.5 551.7-23.5 548.7-24.25 548.7-25 553.2-25Q556.15-25 557.85-23.1L557.85-23.1Q558.5-22.35 558.95-21.25L558.95-21.25Q559.65-22.55 560.6-23.5L560.6-23.5Q562.85-25.75 566.2-25.75L566.2-25.75Q569-25.75 571.22-24.58 573.45-23.4 574.7-21.5 575.95-19.6 575.95-17.5L575.95-17.5 575.95-1.5 578.95-0.75 578.95 0 572.45 0Q567.95 0 567.95-4.5L567.95-4.5 567.95-17.5Q567.95-20.65 566.82-22.33 565.7-24 564.2-24L564.2-24Q562.3-24 560.8-22L560.8-22Q560.15-21.15 559.7-20L559.7-20 559.7-1.5 562.7-0.75 562.7 0 548.7 0ZM612.44 0.75Q607.54 0.75 603.87-1.38 600.19-3.5 598.19-7.6 596.19-11.7 596.19-17.5L596.19-17.5Q596.19-23.3 598.19-27.4 600.19-31.5 603.87-33.63 607.54-35.75 612.44-35.75L612.44-35.75Q617.34-35.75 621.02-33.63 624.69-31.5 626.69-27.4 628.69-23.3 628.69-17.5L628.69-17.5Q628.69-11.7 626.69-7.6 624.69-3.5 621.02-1.38 617.34 0.75 612.44 0.75L612.44 0.75ZM612.44-0.25Q614.39-0.25 616.07-1.9 617.74-3.55 618.84-7.4 619.94-11.25 619.94-17.5L619.94-17.5Q619.94-23.75 618.84-27.6 617.74-31.45 616.07-33.1 614.39-34.75 612.44-34.75L612.44-34.75Q610.49-34.75 608.82-33.1 607.14-31.45 606.04-27.6 604.94-23.75 604.94-17.5L604.94-17.5Q604.94-11.25 606.04-7.4 607.14-3.55 608.82-1.9 610.49-0.25 612.44-0.25L612.44-0.25ZM632.69 0L632.69-0.75 635.69-1.5 635.69-22.75 632.19-22.75 632.19-24 635.69-24 635.69-26.5Q635.69-29.15 636.97-31.25 638.24-33.35 640.62-34.55 642.99-35.75 646.19-35.75L646.19-35.75Q648.79-35.75 650.67-34.98 652.54-34.2 653.49-32.93 654.44-31.65 654.44-30.25L654.44-30.25Q654.44-28.55 653.42-27.53 652.39-26.5 650.69-26.5L650.69-26.5Q649.99-26.5 649.29-26.6L649.29-26.6 648.69-26.75 648.69-34.5 648.24-34.6Q648.04-34.65 647.79-34.7 647.54-34.75 647.19-34.75L647.19-34.75Q645.49-34.75 644.59-32.98 643.69-31.2 643.69-26.5L643.69-26.5 643.69-24 651.69-24 651.69-22.75 643.69-22.75 643.69-1.5 646.69-0.75 646.69 0 632.69 0ZM674.94 0L674.94-0.75 677.94-1.5 677.94-33.75 672.19-33.75Q672.19-30.7 670.54-27.9L670.54-27.9Q669.84-26.75 668.94-26L668.94-26 667.44-26 667.44-35 696.69-35 696.69-26 695.19-26Q694.24-26.75 693.54-27.9L693.54-27.9Q691.94-30.6 691.94-33.75L691.94-33.75 686.19-33.75 686.19-1.5 689.19-0.75 689.19 0 674.94 0ZM710.93 0.75Q704.53 0.75 700.98-2.78 697.43-6.3 697.43-12.5L697.43-12.5Q697.43-16.55 698.98-19.55 700.53-22.55 703.31-24.15 706.08-25.75 709.68-25.75L709.68-25.75Q713.28-25.75 716.01-24.4 718.73-23.05 720.21-20.78 721.68-18.5 721.68-15.75L721.68-15.75Q721.68-14.5 721.43-13.6L721.43-13.6 721.18-12.75Q719.03-12.3 716.53-12L716.53-12Q711.28-11.25 705.93-11.25L705.93-11.25Q705.93-5.45 707.53-2.98 709.13-0.5 711.93-0.5L711.93-0.5Q713.88-0.5 715.56-1.43 717.23-2.35 718.21-3.88 719.18-5.4 719.18-7L719.18-7 720.43-7Q720.43-5 719.23-3.2 718.03-1.4 715.88-0.33 713.73 0.75 710.93 0.75L710.93 0.75ZM705.93-12.5Q709.13-12.5 711.13-12.75L711.13-12.75Q711.98-12.8 712.93-13L712.93-13Q712.98-13.25 713.18-14.1L713.18-14.1Q713.43-15.35 713.43-16.75L713.43-16.75Q713.43-20.9 712.33-22.83 711.23-24.75 709.68-24.75L709.68-24.75Q705.93-24.75 705.93-12.5L705.93-12.5ZM738.93 0.75Q732.53 0.75 728.98-2.78 725.43-6.3 725.43-12.5L725.43-12.5Q725.43-18.7 728.98-22.23 732.53-25.75 738.93-25.75L738.93-25.75Q743.53-25.75 745.86-24.15 748.18-22.55 748.18-20.25L748.18-20.25Q748.18-18.55 747.16-17.53 746.13-16.5 744.43-16.5L744.43-16.5Q743.73-16.5 743.03-16.6L743.03-16.6 742.43-16.75 742.43-24.25 741.73-24.5Q740.98-24.75 739.93-24.75L739.93-24.75Q737.08-24.75 735.51-22.05 733.93-19.35 733.93-12.5L733.93-12.5Q733.93-5.85 735.51-3.18 737.08-0.5 739.93-0.5L739.93-0.5Q741.88-0.5 743.56-1.43 745.23-2.35 746.21-3.88 747.18-5.4 747.18-7L747.18-7 748.43-7Q748.43-5 747.23-3.2 746.03-1.4 743.88-0.33 741.73 0.75 738.93 0.75L738.93 0.75ZM751.93 0L751.93-0.75 754.93-1.5 754.93-33.5 751.93-34.25 751.93-35 758.43-35Q762.93-35 762.93-30.5L762.93-30.5 762.93-22.5Q763.68-23.5 764.48-24.1L764.48-24.1Q766.63-25.75 769.43-25.75L769.43-25.75Q772.23-25.75 774.45-24.58 776.68-23.4 777.93-21.5 779.18-19.6 779.18-17.5L779.18-17.5 779.18-1.5 782.18-0.75 782.18 0 775.68 0Q771.18 0 771.18-4.5L771.18-4.5 771.18-17.5Q771.18-20.65 770.05-22.33 768.93-24 767.43-24L767.43-24Q765.53-24 764.03-22L764.03-22Q763.38-21.15 762.93-20L762.93-20 762.93-1.5 765.93-0.75 765.93 0 751.93 0ZM785.18 0L785.18-0.75 788.18-1.5 788.18-23.5 785.18-24.25 785.18-25 789.68-25Q792.63-25 794.33-23.1L794.33-23.1Q794.98-22.35 795.43-21.25L795.43-21.25Q796.13-22.55 797.08-23.5L797.08-23.5Q799.33-25.75 802.68-25.75L802.68-25.75Q805.48-25.75 807.7-24.58 809.93-23.4 811.18-21.5 812.43-19.6 812.43-17.5L812.43-17.5 812.43-1.5 815.43-0.75 815.43 0 808.93 0Q804.43 0 804.43-4.5L804.43-4.5 804.43-17.5Q804.43-20.65 803.3-22.33 802.18-24 800.68-24L800.68-24Q798.78-24 797.28-22L797.28-22Q796.63-21.15 796.18-20L796.18-20 796.18-1.5 799.18-0.75 799.18 0 785.18 0ZM831.67 0.75Q825.47 0.75 821.95-2.78 818.42-6.3 818.42-12.5L818.42-12.5Q818.42-18.7 821.95-22.23 825.47-25.75 831.67-25.75L831.67-25.75Q837.87-25.75 841.4-22.23 844.92-18.7 844.92-12.5L844.92-12.5Q844.92-6.3 841.4-2.78 837.87 0.75 831.67 0.75L831.67 0.75ZM831.67-0.25Q833.67-0.25 835.05-3.05 836.42-5.85 836.42-12.5L836.42-12.5Q836.42-19.15 835.05-21.95 833.67-24.75 831.67-24.75L831.67-24.75Q829.67-24.75 828.3-21.95 826.92-19.15 826.92-12.5L826.92-12.5Q826.92-5.85 828.3-3.05 829.67-0.25 831.67-0.25L831.67-0.25ZM848.92 0L848.92-0.75 851.92-1.5 851.92-33.5 848.92-34.25 848.92-35 855.42-35Q859.92-35 859.92-30.5L859.92-30.5 859.92-1.5 862.92-0.75 862.92 0 848.92 0ZM879.17 0.75Q872.97 0.75 869.44-2.78 865.92-6.3 865.92-12.5L865.92-12.5Q865.92-18.7 869.44-22.23 872.97-25.75 879.17-25.75L879.17-25.75Q885.37-25.75 888.89-22.23 892.42-18.7 892.42-12.5L892.42-12.5Q892.42-6.3 888.89-2.78 885.37 0.75 879.17 0.75L879.17 0.75ZM879.17-0.25Q881.17-0.25 882.54-3.05 883.92-5.85 883.92-12.5L883.92-12.5Q883.92-19.15 882.54-21.95 881.17-24.75 879.17-24.75L879.17-24.75Q877.17-24.75 875.79-21.95 874.42-19.15 874.42-12.5L874.42-12.5Q874.42-5.85 875.79-3.05 877.17-0.25 879.17-0.25L879.17-0.25ZM908.17 10.75Q903.72 10.75 900.92 9.95 898.12 9.15 896.89 7.9 895.67 6.65 895.67 5.25L895.67 5.25Q895.67 3.55 896.69 2.53 897.72 1.5 899.42 1.5L899.42 1.5Q899.82 1.5 900.87 1.65L900.87 1.65 901.42 1.75 901.42 8.75Q902.02 8.95 903.32 9.25L903.32 9.25Q905.62 9.75 907.67 9.75L907.67 9.75Q913.77 9.75 916.59 8.03 919.42 6.3 919.42 3.75L919.42 3.75Q919.42 0.5 913.42 0.5L913.42 0.5 903.92 0.5Q900.17 0.5 898.17-1.05 896.17-2.6 896.17-5L896.17-5Q896.17-7.4 898.52-9.25L898.52-9.25Q899.47-9.95 900.92-10.5L900.92-10.5Q899.07-11.65 898.24-13.23 897.42-14.8 897.42-17L897.42-17Q897.42-20.7 900.22-22.98 903.02-25.25 908.42-25.25L908.42-25.25Q910.77-25.25 912.74-24.78 914.72-24.3 915.92-23.5L915.92-23.5Q916.32-24.35 916.97-25L916.97-25Q918.47-26.5 920.67-26.5L920.67-26.5Q922.37-26.5 923.52-25.33 924.67-24.15 924.67-22.25L924.67-22.25Q924.67-20.8 923.89-19.9 923.12-19 921.92-19L921.92-19Q921.37-19 920.67-19.1L920.67-19.1 920.17-19.25 920.17-25.25Q918.87-25.25 917.72-24L917.72-24Q917.27-23.55 916.92-22.75L916.92-22.75Q919.42-20.55 919.42-17L919.42-17Q919.42-13.3 916.62-11.03 913.82-8.75 908.42-8.75L908.42-8.75Q904.82-8.75 901.92-10L901.92-10 900.92-9.5Q900.42-9.2 900.17-8.93 899.92-8.65 899.92-8.25L899.92-8.25Q899.92-7.4 900.79-6.95 901.67-6.5 903.92-6.5L903.92-6.5 913.42-6.5Q917.17-6.5 919.29-4.33 921.42-2.15 921.42 1.75L921.42 1.75Q921.42 5.75 918.09 8.25 914.77 10.75 908.17 10.75L908.17 10.75ZM908.42-9.75Q910.07-9.75 910.99-11.35 911.92-12.95 911.92-17L911.92-17Q911.92-21.05 910.99-22.65 910.07-24.25 908.42-24.25L908.42-24.25Q906.77-24.25 905.84-22.65 904.92-21.05 904.92-17L904.92-17Q904.92-12.95 905.84-11.35 906.77-9.75 908.42-9.75L908.42-9.75ZM932.66 10.75Q930.41 10.75 929.16 9.55 927.91 8.35 927.91 6.25L927.91 6.25Q927.91 4.35 928.94 3.3 929.96 2.25 931.66 2.25L931.66 2.25Q932.06 2.25 932.46 2.33 932.86 2.4 933.01 2.4L933.01 2.4 933.66 2.5 933.66 9.25Q935.11 9 936.21 7.65 937.31 6.3 938.66 3L938.66 3 939.66 0.5 926.66-23.5 924.16-24.25 924.16-25 930.41-25Q933.01-25 934.54-23.93 936.06-22.85 937.16-20.75L937.16-20.75 943.41-9.2 948.66-22.75 944.91-24.25 944.91-25 954.16-25 954.16-24.25 950.16-22.75 940.16 3Q938.56 7.1 936.76 8.93 934.96 10.75 932.66 10.75L932.66 10.75Z" opacity="1" transform="matrix(1,0,0,1,0,0)" fill="#ffffff" class="undefined-text-1" data-fill-palette-color="secondary" id="text-1"></path></svg></g></svg></g></svg></g></svg></g><g></g></svg></g></svg></g></svg></g></svg><rect width="395.52" height="247.2" fill="none" stroke="none" visibility="hidden"></rect></g></svg></g></svg>